<svg width="128" height="80" viewBox="0 0 128 80" fill="none" xmlns="http://www.w3.org/2000/svg">
<rect width="128" height="80" rx="8" fill="#F4CDCE"/>
<path d="M20.5098 34.5469C18.4134 34.5469 15.998 33.3346 13.2637 30.9102L8.25977 33.3164C8.16862 33.3164 8.06836 33.1797 7.95898 32.9062C7.86784 32.6328 7.82227 32.4414 7.82227 32.332C7.82227 32.2227 8.13216 32.0677 8.75195 31.8672C10.903 31.2109 12.3249 30.5638 13.0176 29.9258C12.7441 28.8867 12.6074 27.9388 12.6074 27.082C12.6074 26.207 12.7715 25.4505 13.0996 24.8125C13.7559 23.6094 15.2415 22.6706 17.5566 21.9961C17.4108 22.1055 17.3835 22.2331 17.4746 22.3789C17.584 22.5065 17.6113 22.5977 17.5566 22.6523C15.8796 23.5091 14.8132 24.138 14.3574 24.5391C13.6465 25.1953 13.291 26.043 13.291 27.082C13.291 27.7565 13.4551 28.6042 13.7832 29.625C14.2936 29.2422 15.8978 28.0938 18.5957 26.1797C21.2936 24.2656 23.6087 22.5065 25.541 20.9023L26.0605 13.9297C26.1699 12.6901 26.653 11.5599 27.5098 10.5391C28.3665 9.5 29.3691 8.98047 30.5176 8.98047C31.3197 9.14453 31.8848 9.40885 32.2129 9.77344C32.5592 10.1198 32.7324 10.5117 32.7324 10.9492C32.7324 12.0065 32.1491 13.3464 30.9824 14.9688C30.4538 15.6979 29.9434 16.3724 29.4512 16.9922C28.1022 18.6693 27.1634 19.9453 26.6348 20.8203C26.7988 21.9323 26.8809 23.0078 26.8809 24.0469C26.8809 25.0677 26.8079 26.043 26.6621 26.9727C26.5163 27.9023 26.3066 28.7956 26.0332 29.6523C25.7598 30.4909 25.4043 31.2383 24.9668 31.8945C23.7819 33.6628 22.2962 34.5469 20.5098 34.5469ZM14.2754 30.5273C16.5358 32.6237 18.5501 33.6719 20.3184 33.6719C21.7038 33.6719 22.8158 33.1888 23.6543 32.2227C24.7298 30.9648 25.3952 29.5065 25.6504 27.8477C25.8327 26.7539 25.9238 25.7422 25.9238 24.8125C25.9238 23.8646 25.8327 22.944 25.6504 22.0508L14.2754 30.5273ZM30.4902 9.77344C28.8314 9.95573 27.7741 10.8854 27.3184 12.5625C26.9902 13.7839 26.7897 15.1419 26.7168 16.6367C26.6439 18.1133 26.5801 19.0612 26.5254 19.4805C27.3092 18.8242 28.4121 17.4479 29.834 15.3516C31.2741 13.2552 31.9941 11.8333 31.9941 11.0859C31.9941 10.6667 31.8483 10.3477 31.5566 10.1289C31.265 9.89193 30.9095 9.77344 30.4902 9.77344ZM29.916 28.2031L29.5879 28.2852C29.5332 28.3398 29.3783 28.3854 29.123 28.4219C28.8678 28.4583 28.6217 28.4583 28.3848 28.4219C28.1478 28.3854 28.0384 28.2943 28.0566 28.1484C28.0202 27.6198 28.3574 27.3828 29.0684 27.4375C29.8158 27.4922 30.2533 27.2552 30.3809 26.7266L31.666 21.832L32.1855 21.3125C32.3678 21.3672 32.459 21.5312 32.459 21.8047L32.4316 22.0781L31.1465 27.2461V27.3828C31.2923 27.4375 31.5111 27.4648 31.8027 27.4648C32.0944 27.4648 32.6139 27.3646 33.3613 27.1641C34.1087 26.9453 34.5371 26.8359 34.6465 26.8359C34.6465 27.8385 33.972 28.3398 32.623 28.3398C32.2038 28.3398 31.7298 28.2943 31.2012 28.2031C30.8001 29.1146 30.5996 29.9531 30.5996 30.7188C30.5996 31.4661 30.8001 32.1589 31.2012 32.7969C31.6022 33.4167 32.222 33.7266 33.0605 33.7266C33.9173 33.599 34.5736 33.3984 35.0293 33.125C35.5033 32.8333 35.8496 32.6328 36.0684 32.5234C36.2871 32.3958 36.5059 32.332 36.7246 32.332C36.9434 32.332 37.1803 32.3594 37.4355 32.4141C36.9251 33.3255 35.4486 33.9271 33.0059 34.2188C32.9512 34.2188 32.9056 34.2188 32.8691 34.2188C31.6113 34.2188 30.7637 33.7539 30.3262 32.8242C29.998 32.1497 29.834 31.375 29.834 30.5C29.834 29.6068 29.8613 28.8411 29.916 28.2031ZM43.0137 27.2461C42.7767 28.4492 42.6582 29.4518 42.6582 30.2539C42.6582 31.056 42.7129 31.6484 42.8223 32.0312C42.9499 32.3958 43.1504 32.6784 43.4238 32.8789C43.7155 33.0794 43.9616 33.1888 44.1621 33.207C44.3809 33.2253 44.6452 33.2253 44.9551 33.207C46.2676 32.569 47.0514 32.25 47.3066 32.25C47.5801 32.25 47.7168 32.2956 47.7168 32.3867C47.7168 32.5143 47.4525 32.7331 46.9238 33.043C46.3952 33.3529 45.7389 33.5807 44.9551 33.7266C42.9499 33.7266 41.9473 32.8151 41.9473 30.9922C41.9473 30.7917 41.9564 30.582 41.9746 30.3633C41.8652 30.5638 41.7103 30.8737 41.5098 31.293C41.3275 31.694 41.1816 32.0039 41.0723 32.2227C40.9629 32.4414 40.7988 32.7057 40.5801 33.0156C40.3613 33.3073 40.1426 33.526 39.9238 33.6719C39.3223 34.0547 38.6204 34.2461 37.8184 34.2461C37.472 34.2096 37.1895 34.1276 36.9707 34C36.6061 33.7995 36.4238 33.3711 36.4238 32.7148C36.4238 31.5482 37.1621 29.6068 38.6387 26.8906C38.748 27.1094 38.8027 27.3555 38.8027 27.6289C38.8027 27.8841 38.7116 28.2487 38.5293 28.7227C38.3652 29.1784 38.0918 29.8164 37.709 30.6367C37.3444 31.457 37.1348 32.1862 37.0801 32.8242C37.0801 33.207 37.2077 33.4167 37.4629 33.4531C37.554 33.4531 37.7363 33.4531 38.0098 33.4531C38.6842 33.4531 39.3678 33.0521 40.0605 32.25C40.7715 31.4297 41.3275 30.5456 41.7285 29.5977C42.1296 28.6315 42.3301 27.8659 42.3301 27.3008L42.6309 26.9727C42.8861 26.9727 43.0137 27.0638 43.0137 27.2461ZM48.5098 31.1836H48.7832C49.0202 31.0195 49.485 30.6549 50.1777 30.0898C50.8887 29.5065 51.2806 29.1875 51.3535 29.1328C51.4447 29.0599 51.9733 28.5404 52.9395 27.5742C53.0124 27.4831 53.1217 27.2917 53.2676 27C53.5775 26.3438 53.9421 26.0156 54.3613 26.0156C54.6165 26.0156 54.7441 26.1523 54.7441 26.4258C54.7441 26.681 54.653 26.9727 54.4707 27.3008C54.2884 27.6289 54.1973 27.8841 54.1973 28.0664V33.1797C55.6921 33.1797 56.7129 32.888 57.2598 32.3047C57.4785 32.0859 57.7793 31.7578 58.1621 31.3203C58.5632 30.8828 58.9733 30.5 59.3926 30.1719V30.4453C59.3926 31.0833 59.0007 31.7396 58.2168 32.4141C57.4329 33.0703 56.6126 33.5534 55.7559 33.8633C54.8991 34.1732 54.3066 34.3281 53.9785 34.3281C53.6504 34.3281 53.4225 34.319 53.2949 34.3008C52.8027 34.3008 52.3379 34.2096 51.9004 34.0273C51.4629 33.8633 50.9525 33.6081 50.3691 33.2617C49.804 32.9154 49.3483 32.6602 49.002 32.4961C48.2363 33.0065 47.6074 33.2617 47.1152 33.2617C46.6413 33.2617 46.4043 33.1615 46.4043 32.9609C46.4043 32.8698 46.4954 32.7331 46.6777 32.5508C46.8418 32.3685 47.2064 32.1771 47.7715 31.9766L47.252 31.1836C47.1608 31.1107 47.1699 31.056 47.2793 31.0195C47.3887 30.9648 47.4707 30.9375 47.5254 30.9375L47.9902 31.0469C48.3184 31.138 48.4915 31.1836 48.5098 31.1836ZM50.0684 31.7031C50.2689 32.1042 50.7428 32.4414 51.4902 32.7148C52.2376 32.9883 52.9121 33.125 53.5137 33.125C53.5137 31.5391 53.4043 30.1172 53.1855 28.8594C52.7845 29.0964 52.5293 29.2695 52.4199 29.3789C52.3105 29.4701 51.9277 29.8529 51.2715 30.5273C50.6152 31.2018 50.2142 31.5938 50.0684 31.7031ZM61.416 33.043C62.0358 33.043 62.6738 32.9518 63.3301 32.7695C63.9863 32.5872 64.8066 32.332 65.791 32.0039C66.7754 31.6758 67.4316 31.5117 67.7598 31.5117C68.0879 31.5117 68.252 31.6029 68.252 31.7852C68.252 31.8763 68.2337 31.9766 68.1973 32.0859C65.4264 33.3438 63.2663 33.9727 61.7168 33.9727C60.8418 33.9727 60.1582 33.7721 59.666 33.3711C59.1921 32.9701 58.9551 32.5052 58.9551 31.9766C58.9551 31.4297 59.0553 30.8828 59.2559 30.3359C59.7116 29.1146 60.4499 28.1758 61.4707 27.5195C62.0723 27.1185 62.6283 26.918 63.1387 26.918C64.0319 26.918 64.7793 27.4375 65.3809 28.4766V28.5586L64.8887 29.0508C64.5059 28.2305 63.9772 27.8203 63.3027 27.8203C63.0658 27.8203 62.8197 27.875 62.5645 27.9844C61.6712 28.2943 60.9421 28.9779 60.377 30.0352C59.9941 30.7461 59.8027 31.457 59.8027 32.168C59.985 32.7513 60.5228 33.043 61.416 33.043ZM78.8887 32.7422C77.9043 33.4531 76.8288 33.8086 75.6621 33.8086C75.0605 33.8086 74.5684 33.6263 74.1855 33.2617C73.821 32.8971 73.5931 32.4414 73.502 31.8945C73.4108 31.3294 73.347 30.8281 73.3105 30.3906C73.2923 29.9349 73.2832 29.5612 73.2832 29.2695C73.2832 28.9596 73.3014 28.6406 73.3379 28.3125C73.2832 28.112 73.028 28.0117 72.5723 28.0117C72.1348 28.0117 71.7064 28.2396 71.2871 28.6953C70.8678 29.151 70.5215 29.6979 70.248 30.3359C69.9928 30.9557 69.7376 31.5755 69.4824 32.1953C69.2454 32.8151 69.0176 33.2799 68.7988 33.5898C68.5801 33.8997 68.3978 34.0547 68.252 34.0547C68.1061 34.0547 67.9967 34.0365 67.9238 34C67.9056 33.8906 67.8965 33.763 67.8965 33.6172C67.8965 32.7057 68.2155 30.7461 68.8535 27.7383C69.4915 24.7305 70.1204 22.151 70.7402 20C70.7767 19.8724 70.877 19.599 71.041 19.1797C71.2233 18.7422 71.4147 18.4323 71.6152 18.25C71.8158 18.0495 72.0254 17.9492 72.2441 17.9492C72.4629 17.9492 72.6361 17.9948 72.7637 18.0859V18.0312C72.946 18.1589 73.0918 18.4688 73.2012 18.9609C73.3105 19.4531 73.3652 19.8451 73.3652 20.1367C73.3652 21.8503 72.9186 23.418 72.0254 24.8398C71.6608 25.4232 71.2962 25.9701 70.9316 26.4805C70.5671 26.9909 70.2754 27.474 70.0566 27.9297C69.8561 28.3854 69.7559 28.7227 69.7559 28.9414C69.7559 29.1602 69.7559 29.2969 69.7559 29.3516C70.7585 27.9479 71.8249 27.2461 72.9551 27.2461C73.3561 27.2461 73.6478 27.2917 73.8301 27.3828C73.9759 27.474 74.0671 27.6016 74.1035 27.7656C74.14 27.9115 74.1582 28.3034 74.1582 28.9414C74.1764 29.5612 74.2038 30.099 74.2402 30.5547C74.2949 30.9922 74.377 31.4661 74.4863 31.9766C74.5957 32.4688 74.7415 32.7878 74.9238 32.9336C75.1243 33.0794 75.3066 33.1523 75.4707 33.1523C75.6348 33.1523 75.8079 33.1068 75.9902 33.0156C77.5944 32.2318 78.6517 31.8398 79.1621 31.8398C79.3991 31.8398 79.5176 31.9128 79.5176 32.0586C79.5176 32.2044 79.3079 32.4323 78.8887 32.7422ZM71.5059 20.3281C70.8314 22.9349 70.485 24.4206 70.4668 24.7852C70.4668 25.1315 70.4668 25.3229 70.4668 25.3594L70.4941 25.7422C71.3509 25.3958 71.9616 23.8828 72.3262 21.2031C72.4355 20.4193 72.4902 19.7812 72.4902 19.2891C72.4902 18.7969 72.4082 18.5508 72.2441 18.5508C72.0801 18.5508 71.834 19.1432 71.5059 20.3281ZM78.9707 31.1289C78.9525 30.9648 78.9434 30.8099 78.9434 30.6641C78.9434 29.4974 79.3262 28.2943 80.0918 27.0547C80.8757 25.8151 81.8783 25.1953 83.0996 25.1953C83.3366 25.1953 83.528 25.2682 83.6738 25.4141C83.8197 25.5417 83.8926 25.7695 83.8926 26.0977C83.8926 26.4076 83.8014 26.7812 83.6191 27.2188C83.4551 27.638 83.1908 28.0664 82.8262 28.5039C82.4798 28.9414 82.179 29.2969 81.9238 29.5703C81.6686 29.8438 81.304 30.1992 80.8301 30.6367C80.3743 31.0742 80.1009 31.3385 80.0098 31.4297C79.9915 31.5755 79.9824 31.6576 79.9824 31.6758C79.9824 32.168 80.2194 32.5508 80.6934 32.8242C81.1673 33.0977 81.6595 33.2344 82.1699 33.2344C83.3913 33.2344 84.3574 33.0156 85.0684 32.5781C85.7975 32.1406 86.6361 31.4023 87.584 30.3633C87.7298 30.181 87.8118 30.0352 87.8301 29.9258C87.8665 29.8164 87.9668 29.6979 88.1309 29.5703C88.3132 29.6432 88.4043 29.8164 88.4043 30.0898C88.222 30.6549 87.8574 31.2656 87.3105 31.9219C86.7637 32.5599 86.1165 33.1068 85.3691 33.5625C84.3301 34.1641 83.446 34.4648 82.7168 34.4648C82.0059 34.4648 81.3132 34.2188 80.6387 33.7266C79.9642 33.2344 79.4082 32.3685 78.9707 31.1289ZM83.1543 26.207C82.3704 26.207 81.6413 26.6263 80.9668 27.4648C80.2923 28.3034 79.9551 29.1055 79.9551 29.8711C79.9551 30.1263 79.9733 30.3086 80.0098 30.418C80.6842 30.0534 81.377 29.4336 82.0879 28.5586C82.7988 27.6654 83.1543 26.8815 83.1543 26.207ZM94.1191 31.1562C94.1191 30.8281 94.1191 30.263 94.1191 29.4609C94.1374 28.6406 94.1465 27.9388 94.1465 27.3555C93.6361 27.4648 92.8887 28.1211 91.9043 29.3242C90.9382 30.5273 90.4095 31.1562 90.3184 31.2109C89.6074 32.1589 89.0514 32.8333 88.6504 33.2344C88.4863 33.4531 88.222 33.5625 87.8574 33.5625V32.9609L89.0332 29.1602C89.0332 27.8294 89.2611 26.8451 89.7168 26.207C89.8444 26.0247 89.9629 25.9336 90.0723 25.9336C90.2546 25.9336 90.3457 26.2435 90.3457 26.8633C90.3457 27.4648 90.2546 28.1393 90.0723 28.8867C89.89 29.6159 89.7988 30.2266 89.7988 30.7188C89.9447 30.5729 90.3822 30.0625 91.1113 29.1875C91.8405 28.3125 92.278 27.8021 92.4238 27.6562C92.5514 27.5833 92.7702 27.401 93.0801 27.1094C93.7363 26.526 94.3105 26.2344 94.8027 26.2344C95.0762 26.2344 95.2493 26.3255 95.3223 26.5078C95.3405 26.7083 95.3496 27.0365 95.3496 27.4922C95.3496 27.9297 95.2767 28.6315 95.1309 29.5977C94.985 30.5456 94.903 31.3021 94.8848 31.8672C94.8848 32.724 95.2402 33.1523 95.9512 33.1523C96.4616 33.1523 96.9538 33.0156 97.4277 32.7422C97.9017 32.4505 98.2845 32.1315 98.5762 31.7852C98.8678 31.4206 99.2051 31.0104 99.5879 30.5547C99.9707 30.0807 100.308 29.7344 100.6 29.5156V29.7891C100.6 30.6641 100.035 31.5755 98.9043 32.5234C97.7741 33.4531 96.7441 33.918 95.8145 33.918H94.9121C94.6387 33.7357 94.4564 33.5625 94.3652 33.3984C94.2923 33.2344 94.2376 33.1159 94.2012 33.043C94.1647 32.9701 94.1374 32.8607 94.1191 32.7148C94.1191 32.5508 94.1191 32.4323 94.1191 32.3594V31.1562ZM99.752 34.1641L101.311 25.7148L103.143 18.0039C103.598 17.6393 103.972 17.457 104.264 17.457C104.701 17.457 104.92 17.9036 104.92 18.7969C104.92 20.6016 104.227 23.2721 102.842 26.8086C102.331 28.1029 101.83 29.224 101.338 30.1719C101.484 30.026 101.775 29.707 102.213 29.2148C102.669 28.7227 102.997 28.3763 103.197 28.1758C103.416 27.9753 103.735 27.6927 104.154 27.3281C104.592 26.9453 104.975 26.6719 105.303 26.5078C106.123 26.0521 106.952 25.806 107.791 25.7695C108.411 25.9701 108.721 26.3073 108.721 26.7812C108.721 27.237 108.274 27.9023 107.381 28.7773C106.506 29.6341 105.531 30.3542 104.455 30.9375C104.929 31.612 105.576 32.1771 106.396 32.6328C107.217 33.0703 108.019 33.2891 108.803 33.2891C109.587 33.2891 110.106 33.1159 110.361 32.7695C110.398 32.7695 110.443 32.806 110.498 32.8789C110.571 32.9336 110.607 32.9792 110.607 33.0156C110.607 33.3802 110.416 33.6901 110.033 33.9453C109.65 34.2005 109.368 34.3281 109.186 34.3281C109.021 34.3281 108.912 34.319 108.857 34.3008C108.146 34.2461 107.381 33.9727 106.561 33.4805C105.758 32.9883 104.993 32.5234 104.264 32.0859C103.553 31.6302 102.96 31.4023 102.486 31.4023C102.031 31.4023 101.73 31.4206 101.584 31.457C101.456 31.6576 101.32 32.013 101.174 32.5234C101.046 33.0339 100.882 33.4349 100.682 33.7266C100.481 34.0182 100.171 34.1641 99.752 34.1641ZM102.623 29.9258C102.933 30.0898 103.334 30.1719 103.826 30.1719C104.318 30.1719 104.938 29.9167 105.686 29.4062C106.816 28.6042 107.463 27.6836 107.627 26.6445C106.314 26.6445 104.646 27.7383 102.623 29.9258ZM103.662 19.0703L101.584 27.5742C101.657 27.4102 101.803 27.1276 102.021 26.7266C102.24 26.3073 102.386 26.0247 102.459 25.8789C102.532 25.7148 102.65 25.4596 102.814 25.1133C102.979 24.7487 103.097 24.4388 103.17 24.1836C103.261 23.9284 103.37 23.6003 103.498 23.1992C103.717 22.4883 103.945 21.5404 104.182 20.3555C104.182 19.4622 104.063 19.0156 103.826 19.0156C103.771 19.0156 103.717 19.0339 103.662 19.0703ZM117.607 26.2617L117.662 27.3008C117.662 27.6836 117.635 27.9844 117.58 28.2031C117.544 28.4036 117.516 28.5586 117.498 28.668C117.48 28.7773 117.434 28.9232 117.361 29.1055C117.288 29.2695 117.243 29.388 117.225 29.4609C117.206 29.5339 117.143 29.6706 117.033 29.8711C116.924 30.0716 116.851 30.1992 116.814 30.2539C116.796 30.3086 116.714 30.4635 116.568 30.7188C116.441 30.9557 116.359 31.1107 116.322 31.1836H116.869C117.926 31.1836 119.476 30.6732 121.518 29.6523L121.736 29.8984C119.986 31.3021 117.926 32.0677 115.557 32.1953L113.15 33.6719C112.932 33.8542 112.449 33.9453 111.701 33.9453C110.972 33.9453 110.498 33.7448 110.279 33.3438C110.079 32.9245 109.979 32.2773 109.979 31.4023C109.979 30.5273 110.343 29.5339 111.072 28.4219C111.82 27.3099 112.676 26.7539 113.643 26.7539C114.08 26.7539 114.363 26.9362 114.49 27.3008C113.469 27.6107 112.594 28.1484 111.865 28.9141C111.136 29.6797 110.771 30.5638 110.771 31.5664C110.771 31.9128 110.79 32.1862 110.826 32.3867C110.863 32.5872 110.963 32.7695 111.127 32.9336C111.291 33.0977 111.61 33.1797 112.084 33.1797C113.068 33.1797 113.87 32.7695 114.49 31.9492C114.308 31.6393 114.217 31.138 114.217 30.4453C114.217 29.7344 114.271 29.069 114.381 28.4492C114.508 27.8112 114.755 27.2005 115.119 26.6172C115.484 26.0339 115.939 25.7422 116.486 25.7422C117.033 25.7422 117.407 25.9154 117.607 26.2617ZM116.896 27.5469L116.924 27.1914C116.924 26.8268 116.814 26.6081 116.596 26.5352C116.122 26.8086 115.739 27.3008 115.447 28.0117C115.156 28.7227 115.01 29.3789 115.01 29.9805C115.01 30.582 115.101 30.901 115.283 30.9375C115.794 30.6458 116.186 30.1719 116.459 29.5156C116.751 28.8594 116.896 28.2214 116.896 27.6016V27.5469ZM31.4746 64.1367L33.4707 48.8789C33.5254 48.1497 33.571 47.7214 33.6074 47.5938L33.7168 46.8008H34.2637C34.2637 47.2565 34.209 47.8581 34.0996 48.6055C33.6074 52.2878 33.1335 56.2526 32.6777 60.5C32.696 60.4818 32.7598 60.4271 32.8691 60.3359C32.9785 60.2266 33.0423 60.1628 33.0605 60.1445C33.097 60.1081 33.1608 60.0534 33.252 59.9805C33.3431 59.9076 33.4069 59.862 33.4434 59.8438C33.4798 59.8073 33.5345 59.7617 33.6074 59.707C33.6986 59.6523 33.7715 59.6159 33.8262 59.5977C34.0996 59.5065 34.3184 59.4609 34.4824 59.4609C35.0293 59.4609 35.5306 59.6797 35.9863 60.1172C36.4603 60.5365 36.834 61.0013 37.1074 61.5117C37.3991 62.0039 37.791 62.4688 38.2832 62.9062C38.7936 63.3255 39.3587 63.5352 39.9785 63.5352C40.9629 63.5352 42.0293 63.0065 43.1777 61.9492C44.3444 60.8737 45.3014 59.6341 46.0488 58.2305C46.7962 56.8268 47.1699 55.6419 47.1699 54.6758C47.1699 54.6576 47.1608 54.6302 47.1426 54.5938C47.1426 54.5573 47.1426 54.5391 47.1426 54.5391C46.3587 55.2865 45.584 55.8242 44.8184 56.1523C44.071 56.4622 43.1868 56.6172 42.166 56.6172C41.1634 56.6172 40.3066 56.4349 39.5957 56.0703C38.8848 55.6875 38.3288 55.1589 37.9277 54.4844C37.1803 53.2083 36.8066 51.6315 36.8066 49.7539C36.8066 48.0951 37.1986 46.4271 37.9824 44.75C38.3835 43.9115 38.9303 43.2279 39.623 42.6992C40.334 42.1523 41.1634 41.8789 42.1113 41.8789C43.0592 41.8789 43.9434 42.1888 44.7637 42.8086C45.6022 43.4102 46.2585 44.1849 46.7324 45.1328C47.6986 47.1016 48.1816 49.0794 48.1816 51.0664C48.1816 51.1576 48.1816 51.2396 48.1816 51.3125C48.1816 52.8255 47.8717 54.5026 47.252 56.3438C46.6504 58.1849 45.8118 59.8255 44.7363 61.2656C43.6608 62.6875 42.4121 63.6081 40.9902 64.0273C40.6621 64.1185 40.3249 64.1641 39.9785 64.1641C38.8665 64.1641 37.7181 63.6354 36.5332 62.5781C36.4056 62.4141 36.2507 62.1771 36.0684 61.8672C35.5944 61.1016 35.1387 60.5911 34.7012 60.3359C34.5736 60.2448 34.5007 60.2083 34.4824 60.2266C34.0449 60.3359 33.6803 60.6094 33.3887 61.0469C33.097 61.4844 32.8874 61.9219 32.7598 62.3594C32.4316 63.5443 32.0033 64.1367 31.4746 64.1367ZM37.5449 50.082C37.5449 51.7409 37.9277 53.1172 38.6934 54.2109C39.4772 55.3047 40.6986 55.8516 42.3574 55.8516C42.5762 55.8698 42.7949 55.8789 43.0137 55.8789C44.873 55.8789 46.1582 55.0404 46.8691 53.3633C47.2155 52.5247 47.3887 51.6315 47.3887 50.6836C47.3887 49.7357 47.2337 48.7331 46.9238 47.6758C46.3223 45.5794 45.3197 44.0573 43.916 43.1094C43.3874 42.7448 42.8314 42.5078 42.248 42.3984C41.4277 42.3984 40.6986 42.6628 40.0605 43.1914C39.4225 43.7018 38.9303 44.3581 38.584 45.1602C37.8913 46.7643 37.5449 48.4049 37.5449 50.082ZM47.7715 61.1289C47.7533 60.9648 47.7441 60.8099 47.7441 60.6641C47.7441 59.4974 48.127 58.2943 48.8926 57.0547C49.6764 55.8151 50.679 55.1953 51.9004 55.1953C52.1374 55.1953 52.3288 55.2682 52.4746 55.4141C52.6204 55.5417 52.6934 55.7695 52.6934 56.0977C52.6934 56.4076 52.6022 56.7812 52.4199 57.2188C52.2559 57.638 51.9915 58.0664 51.627 58.5039C51.2806 58.9414 50.9798 59.2969 50.7246 59.5703C50.4694 59.8438 50.1048 60.1992 49.6309 60.6367C49.1751 61.0742 48.9017 61.3385 48.8105 61.4297C48.7923 61.5755 48.7832 61.6576 48.7832 61.6758C48.7832 62.168 49.0202 62.5508 49.4941 62.8242C49.9681 63.0977 50.4603 63.2344 50.9707 63.2344C52.1921 63.2344 53.1582 63.0156 53.8691 62.5781C54.5983 62.1406 55.4368 61.4023 56.3848 60.3633C56.5306 60.181 56.6126 60.0352 56.6309 59.9258C56.6673 59.8164 56.7676 59.6979 56.9316 59.5703C57.1139 59.6432 57.2051 59.8164 57.2051 60.0898C57.0228 60.6549 56.6582 61.2656 56.1113 61.9219C55.5645 62.5599 54.9173 63.1068 54.1699 63.5625C53.1309 64.1641 52.2467 64.4648 51.5176 64.4648C50.8066 64.4648 50.1139 64.2188 49.4395 63.7266C48.765 63.2344 48.209 62.3685 47.7715 61.1289ZM51.9551 56.207C51.1712 56.207 50.4421 56.6263 49.7676 57.4648C49.0931 58.3034 48.7559 59.1055 48.7559 59.8711C48.7559 60.1263 48.7741 60.3086 48.8105 60.418C49.485 60.0534 50.1777 59.4336 50.8887 58.5586C51.5996 57.6654 51.9551 56.8815 51.9551 56.207ZM58.5176 61.1836H58.791C59.028 61.0195 59.4928 60.6549 60.1855 60.0898C60.8965 59.5065 61.2884 59.1875 61.3613 59.1328C61.4525 59.0599 61.9811 58.5404 62.9473 57.5742C63.0202 57.4831 63.1296 57.2917 63.2754 57C63.5853 56.3438 63.9499 56.0156 64.3691 56.0156C64.6243 56.0156 64.752 56.1523 64.752 56.4258C64.752 56.681 64.6608 56.9727 64.4785 57.3008C64.2962 57.6289 64.2051 57.8841 64.2051 58.0664V63.1797C65.6999 63.1797 66.7207 62.888 67.2676 62.3047C67.4863 62.0859 67.7871 61.7578 68.1699 61.3203C68.571 60.8828 68.9811 60.5 69.4004 60.1719V60.4453C69.4004 61.0833 69.0085 61.7396 68.2246 62.4141C67.4408 63.0703 66.6204 63.5534 65.7637 63.8633C64.9069 64.1732 64.3145 64.3281 63.9863 64.3281C63.6582 64.3281 63.4303 64.319 63.3027 64.3008C62.8105 64.3008 62.3457 64.2096 61.9082 64.0273C61.4707 63.8633 60.9603 63.6081 60.377 63.2617C59.8118 62.9154 59.3561 62.6602 59.0098 62.4961C58.2441 63.0065 57.6152 63.2617 57.123 63.2617C56.6491 63.2617 56.4121 63.1615 56.4121 62.9609C56.4121 62.8698 56.5033 62.7331 56.6855 62.5508C56.8496 62.3685 57.2142 62.1771 57.7793 61.9766L57.2598 61.1836C57.1686 61.1107 57.1777 61.056 57.2871 61.0195C57.3965 60.9648 57.4785 60.9375 57.5332 60.9375L57.998 61.0469C58.3262 61.138 58.4993 61.1836 58.5176 61.1836ZM60.0762 61.7031C60.2767 62.1042 60.7507 62.4414 61.498 62.7148C62.2454 62.9883 62.9199 63.125 63.5215 63.125C63.5215 61.5391 63.4121 60.1172 63.1934 58.8594C62.7923 59.0964 62.5371 59.2695 62.4277 59.3789C62.3184 59.4701 61.9355 59.8529 61.2793 60.5273C60.623 61.2018 60.222 61.5938 60.0762 61.7031ZM69.1543 58.1484L69.2637 57.793C69.6283 56.6263 69.9382 56.043 70.1934 56.043C70.5579 56.043 70.7402 56.1797 70.7402 56.4531C70.7402 56.5078 70.7311 56.5625 70.7129 56.6172C70.0202 58.3125 69.6738 59.9258 69.6738 61.457C69.6738 62.1497 69.847 62.7331 70.1934 63.207C70.5397 63.6628 71.0684 63.8906 71.7793 63.8906C73.5658 63.1979 74.6868 62.8516 75.1426 62.8516C75.2884 62.8516 75.3613 62.888 75.3613 62.9609C75.3613 63.1797 74.8874 63.4987 73.9395 63.918C72.9915 64.319 72.2441 64.5195 71.6973 64.5195C71.1686 64.5195 70.7676 64.474 70.4941 64.3828C70.2207 64.3099 70.0202 64.237 69.8926 64.1641C69.765 64.0911 69.61 63.9362 69.4277 63.6992C69.2454 63.444 69.127 63.1159 69.0723 62.7148C69.0176 62.2956 68.9902 61.7031 68.9902 60.9375C68.9902 60.1719 69.0449 59.2422 69.1543 58.1484ZM80.8848 58.1758L80.666 63.8086C80.666 63.8268 80.666 63.9089 80.666 64.0547C80.6842 64.2005 80.6934 64.2917 80.6934 64.3281C81.2402 64.1094 82.0514 63.6901 83.127 63.0703C84.2025 62.4323 85.196 61.9857 86.1074 61.7305C86.2897 61.8398 86.3809 61.9766 86.3809 62.1406C86.3809 62.1771 85.9616 62.3958 85.123 62.7969C82.498 64.0729 80.9303 65.0117 80.4199 65.6133C80.1465 68.4206 79.9186 70.2435 79.7363 71.082C79.5723 71.9206 79.4629 72.4492 79.4082 72.668C79.3717 72.9049 79.2715 73.2422 79.1074 73.6797C78.9434 74.1172 78.7702 74.4362 78.5879 74.6367C78.0957 75.1836 77.5306 75.457 76.8926 75.457C76.2546 75.457 75.6257 75.3294 75.0059 75.0742C74.4043 74.8372 73.9668 74.5273 73.6934 74.1445C73.6569 73.9622 73.6387 73.6615 73.6387 73.2422C73.6387 71.8932 74.3587 70.3438 75.7988 68.5938C75.9082 68.5026 76.2454 68.2292 76.8105 67.7734C78.3236 66.5521 79.1895 65.832 79.4082 65.6133C79.5905 65.3034 79.6816 64.7018 79.6816 63.8086C79.6816 63.7539 79.6725 63.5807 79.6543 63.2891C79.6543 62.9974 79.6543 62.8242 79.6543 62.7695C78.3418 63.6445 77.248 64.082 76.373 64.082C75.6074 64.0456 75.0514 63.6172 74.7051 62.7969C74.5592 62.4323 74.4863 61.9948 74.4863 61.4844C74.4863 60.9557 74.7233 60.3451 75.1973 59.6523C75.9629 58.5586 77.2298 57.7565 78.998 57.2461C80.2559 57.2461 80.8848 57.556 80.8848 58.1758ZM74.459 73.1328C74.459 73.5885 74.7142 73.9531 75.2246 74.2266C75.735 74.5182 76.2546 74.6641 76.7832 74.6641C77.3301 74.6641 77.7949 74.3359 78.1777 73.6797C78.5788 73.0417 78.8522 72.2396 78.998 71.2734C79.2715 69.651 79.4082 68.3203 79.4082 67.2812V66.6523C78.2051 67.4362 77.0749 68.4297 76.0176 69.6328C74.9785 70.8542 74.459 72.0208 74.459 73.1328ZM75.498 62.6602C75.498 63.0977 75.8262 63.3164 76.4824 63.3164C77.5944 63.2799 78.4512 62.8424 79.0527 62.0039C79.6543 61.1654 79.9551 60.4362 79.9551 59.8164C79.9551 59.7617 79.9551 59.707 79.9551 59.6523V59.3789C79.9551 58.9779 79.8639 58.6589 79.6816 58.4219C79.4993 58.1667 79.2441 58.0391 78.916 58.0391C78.8431 58.0208 78.7611 58.0117 78.6699 58.0117C77.8496 58.0117 77.0931 58.4766 76.4004 59.4062C75.7259 60.3359 75.3887 61.1654 75.3887 61.8945C75.3887 62.1497 75.4251 62.4049 75.498 62.6602ZM91.5215 61.1562C91.5215 60.8281 91.5215 60.263 91.5215 59.4609C91.5397 58.6406 91.5488 57.9388 91.5488 57.3555C91.0384 57.4648 90.291 58.1211 89.3066 59.3242C88.3405 60.5273 87.8118 61.1562 87.7207 61.2109C87.0098 62.1589 86.4538 62.8333 86.0527 63.2344C85.8887 63.4531 85.6243 63.5625 85.2598 63.5625V62.9609L86.4355 59.1602C86.4355 57.8294 86.6634 56.8451 87.1191 56.207C87.2467 56.0247 87.3652 55.9336 87.4746 55.9336C87.6569 55.9336 87.748 56.2435 87.748 56.8633C87.748 57.4648 87.6569 58.1393 87.4746 58.8867C87.2923 59.6159 87.2012 60.2266 87.2012 60.7188C87.347 60.5729 87.7845 60.0625 88.5137 59.1875C89.2428 58.3125 89.6803 57.8021 89.8262 57.6562C89.9538 57.5833 90.1725 57.401 90.4824 57.1094C91.1387 56.526 91.7129 56.2344 92.2051 56.2344C92.4785 56.2344 92.6517 56.3255 92.7246 56.5078C92.7428 56.7083 92.752 57.0365 92.752 57.4922C92.752 57.9297 92.679 58.6315 92.5332 59.5977C92.3874 60.5456 92.3053 61.3021 92.2871 61.8672C92.2871 62.724 92.6426 63.1523 93.3535 63.1523C93.8639 63.1523 94.3561 63.0156 94.8301 62.7422C95.304 62.4505 95.6868 62.1315 95.9785 61.7852C96.2702 61.4206 96.6074 61.0104 96.9902 60.5547C97.373 60.0807 97.7103 59.7344 98.002 59.5156V59.7891C98.002 60.6641 97.4368 61.5755 96.3066 62.5234C95.1764 63.4531 94.1465 63.918 93.2168 63.918H92.3145C92.041 63.7357 91.8587 63.5625 91.7676 63.3984C91.6947 63.2344 91.64 63.1159 91.6035 63.043C91.5671 62.9701 91.5397 62.8607 91.5215 62.7148C91.5215 62.5508 91.5215 62.4323 91.5215 62.3594V61.1562Z" fill="#1D0E07"/>
</svg>
