<svg width="256" height="160" viewBox="0 0 256 160" fill="none" xmlns="http://www.w3.org/2000/svg">
<rect width="256" height="160" rx="8" fill="#F4CDCE"/>
<path d="M65.8711 70.7812C62.8763 70.7812 59.4258 69.0495 55.5195 65.5859L48.3711 69.0234C48.2409 69.0234 48.0977 68.8281 47.9414 68.4375C47.8112 68.0469 47.7461 67.7734 47.7461 67.6172C47.7461 67.4609 48.1888 67.2396 49.0742 66.9531C52.1471 66.0156 54.1784 65.0911 55.168 64.1797C54.7773 62.6953 54.582 61.3411 54.582 60.1172C54.582 58.8672 54.8164 57.7865 55.2852 56.875C56.2227 55.1562 58.3451 53.8151 61.6523 52.8516C61.444 53.0078 61.4049 53.1901 61.5352 53.3984C61.6914 53.5807 61.7305 53.7109 61.6523 53.7891C59.2565 55.013 57.7331 55.9115 57.082 56.4844C56.0664 57.4219 55.5586 58.6328 55.5586 60.1172C55.5586 61.0807 55.793 62.2917 56.2617 63.75C56.9909 63.2031 59.2826 61.5625 63.1367 58.8281C66.9909 56.0938 70.2982 53.5807 73.0586 51.2891L73.8008 41.3281C73.957 39.5573 74.6471 37.9427 75.8711 36.4844C77.0951 35 78.5273 34.2578 80.168 34.2578C81.3138 34.4922 82.1211 34.8698 82.5898 35.3906C83.0846 35.8854 83.332 36.4453 83.332 37.0703C83.332 38.5807 82.4987 40.4948 80.832 42.8125C80.0768 43.8542 79.3477 44.8177 78.6445 45.7031C76.7174 48.099 75.3763 49.9219 74.6211 51.1719C74.8555 52.7604 74.9727 54.2969 74.9727 55.7812C74.9727 57.2396 74.8685 58.6328 74.6602 59.9609C74.4518 61.2891 74.1523 62.5651 73.7617 63.7891C73.3711 64.987 72.8633 66.0547 72.2383 66.9922C70.5456 69.5182 68.4232 70.7812 65.8711 70.7812ZM56.9648 65.0391C60.194 68.0339 63.0716 69.5312 65.5977 69.5312C67.5768 69.5312 69.1654 68.8411 70.3633 67.4609C71.8997 65.6641 72.8503 63.5807 73.2148 61.2109C73.4753 59.6484 73.6055 58.2031 73.6055 56.875C73.6055 55.5208 73.4753 54.2057 73.2148 52.9297L56.9648 65.0391ZM80.1289 35.3906C77.7591 35.651 76.2487 36.9792 75.5977 39.375C75.1289 41.1198 74.8424 43.0599 74.7383 45.1953C74.6341 47.3047 74.543 48.6589 74.4648 49.2578C75.5846 48.3203 77.1602 46.3542 79.1914 43.3594C81.2487 40.3646 82.2773 38.3333 82.2773 37.2656C82.2773 36.6667 82.069 36.2109 81.6523 35.8984C81.2357 35.5599 80.7279 35.3906 80.1289 35.3906ZM79.3086 61.7188L78.8398 61.8359C78.7617 61.9141 78.5404 61.9792 78.1758 62.0312C77.8112 62.0833 77.4596 62.0833 77.1211 62.0312C76.7826 61.9792 76.6263 61.849 76.6523 61.6406C76.6003 60.8854 77.082 60.5469 78.0977 60.625C79.1654 60.7031 79.7904 60.3646 79.9727 59.6094L81.8086 52.6172L82.5508 51.875C82.8112 51.9531 82.9414 52.1875 82.9414 52.5781L82.9023 52.9688L81.0664 60.3516V60.5469C81.2747 60.625 81.5872 60.6641 82.0039 60.6641C82.4206 60.6641 83.1628 60.5208 84.2305 60.2344C85.2982 59.9219 85.9102 59.7656 86.0664 59.7656C86.0664 61.1979 85.1029 61.9141 83.1758 61.9141C82.5768 61.9141 81.8997 61.849 81.1445 61.7188C80.5716 63.0208 80.2852 64.2188 80.2852 65.3125C80.2852 66.3802 80.5716 67.3698 81.1445 68.2812C81.7174 69.1667 82.6029 69.6094 83.8008 69.6094C85.0247 69.4271 85.9622 69.1406 86.6133 68.75C87.2904 68.3333 87.7852 68.0469 88.0977 67.8906C88.4102 67.7083 88.7227 67.6172 89.0352 67.6172C89.3477 67.6172 89.6862 67.6562 90.0508 67.7344C89.3216 69.0365 87.2122 69.8958 83.7227 70.3125C83.6445 70.3125 83.5794 70.3125 83.5273 70.3125C81.7305 70.3125 80.5195 69.6484 79.8945 68.3203C79.4258 67.3568 79.1914 66.25 79.1914 65C79.1914 63.724 79.2305 62.6302 79.3086 61.7188ZM98.0195 60.3516C97.681 62.0703 97.5117 63.5026 97.5117 64.6484C97.5117 65.7943 97.5898 66.6406 97.7461 67.1875C97.9284 67.7083 98.2148 68.112 98.6055 68.3984C99.0221 68.6849 99.3737 68.8411 99.6602 68.8672C99.9727 68.8932 100.35 68.8932 100.793 68.8672C102.668 67.9557 103.788 67.5 104.152 67.5C104.543 67.5 104.738 67.5651 104.738 67.6953C104.738 67.8776 104.361 68.1901 103.605 68.6328C102.85 69.0755 101.913 69.401 100.793 69.6094C97.9284 69.6094 96.4961 68.3073 96.4961 65.7031C96.4961 65.4167 96.5091 65.1172 96.5352 64.8047C96.3789 65.0911 96.1576 65.5339 95.8711 66.1328C95.6107 66.7057 95.4023 67.1484 95.2461 67.4609C95.0898 67.7734 94.8555 68.151 94.543 68.5938C94.2305 69.0104 93.918 69.3229 93.6055 69.5312C92.7461 70.0781 91.7435 70.3516 90.5977 70.3516C90.1029 70.2995 89.6992 70.1823 89.3867 70C88.8659 69.7135 88.6055 69.1016 88.6055 68.1641C88.6055 66.4974 89.6602 63.724 91.7695 59.8438C91.9258 60.1562 92.0039 60.5078 92.0039 60.8984C92.0039 61.263 91.8737 61.7839 91.6133 62.4609C91.3789 63.112 90.9883 64.0234 90.4414 65.1953C89.9206 66.3672 89.6211 67.4089 89.543 68.3203C89.543 68.8672 89.7253 69.1667 90.0898 69.2188C90.2201 69.2188 90.4805 69.2188 90.8711 69.2188C91.8346 69.2188 92.8112 68.6458 93.8008 67.5C94.8164 66.3281 95.6107 65.0651 96.1836 63.7109C96.7565 62.3307 97.043 61.237 97.043 60.4297L97.4727 59.9609C97.8372 59.9609 98.0195 60.0911 98.0195 60.3516ZM105.871 65.9766H106.262C106.6 65.7422 107.264 65.2214 108.254 64.4141C109.27 63.5807 109.829 63.125 109.934 63.0469C110.064 62.9427 110.819 62.2005 112.199 60.8203C112.303 60.6901 112.46 60.4167 112.668 60C113.111 59.0625 113.632 58.5938 114.23 58.5938C114.595 58.5938 114.777 58.7891 114.777 59.1797C114.777 59.5443 114.647 59.9609 114.387 60.4297C114.126 60.8984 113.996 61.263 113.996 61.5234V68.8281C116.132 68.8281 117.59 68.4115 118.371 67.5781C118.684 67.2656 119.113 66.7969 119.66 66.1719C120.233 65.5469 120.819 65 121.418 64.5312V64.9219C121.418 65.8333 120.858 66.7708 119.738 67.7344C118.618 68.6719 117.447 69.362 116.223 69.8047C114.999 70.2474 114.152 70.4688 113.684 70.4688C113.215 70.4688 112.889 70.4557 112.707 70.4297C112.004 70.4297 111.34 70.2995 110.715 70.0391C110.09 69.8047 109.361 69.4401 108.527 68.9453C107.72 68.4505 107.069 68.0859 106.574 67.8516C105.48 68.5807 104.582 68.9453 103.879 68.9453C103.202 68.9453 102.863 68.8021 102.863 68.5156C102.863 68.3854 102.993 68.1901 103.254 67.9297C103.488 67.6693 104.009 67.3958 104.816 67.1094L104.074 65.9766C103.944 65.8724 103.957 65.7943 104.113 65.7422C104.27 65.6641 104.387 65.625 104.465 65.625L105.129 65.7812C105.598 65.9115 105.845 65.9766 105.871 65.9766ZM108.098 66.7188C108.384 67.2917 109.061 67.7734 110.129 68.1641C111.197 68.5547 112.16 68.75 113.02 68.75C113.02 66.4844 112.863 64.4531 112.551 62.6562C111.978 62.9948 111.613 63.2422 111.457 63.3984C111.301 63.5286 110.754 64.0755 109.816 65.0391C108.879 66.0026 108.306 66.5625 108.098 66.7188ZM124.309 68.6328C125.194 68.6328 126.105 68.5026 127.043 68.2422C127.98 67.9818 129.152 67.6172 130.559 67.1484C131.965 66.6797 132.902 66.4453 133.371 66.4453C133.84 66.4453 134.074 66.5755 134.074 66.8359C134.074 66.9661 134.048 67.1094 133.996 67.2656C130.038 69.0625 126.952 69.9609 124.738 69.9609C123.488 69.9609 122.512 69.6745 121.809 69.1016C121.132 68.5286 120.793 67.8646 120.793 67.1094C120.793 66.3281 120.936 65.5469 121.223 64.7656C121.874 63.0208 122.928 61.6797 124.387 60.7422C125.246 60.1693 126.04 59.8828 126.77 59.8828C128.046 59.8828 129.113 60.625 129.973 62.1094V62.2266L129.27 62.9297C128.723 61.7578 127.967 61.1719 127.004 61.1719C126.665 61.1719 126.314 61.25 125.949 61.4062C124.673 61.849 123.632 62.8255 122.824 64.3359C122.277 65.3516 122.004 66.3672 122.004 67.3828C122.264 68.2161 123.033 68.6328 124.309 68.6328ZM149.27 68.2031C147.863 69.2188 146.327 69.7266 144.66 69.7266C143.801 69.7266 143.098 69.4661 142.551 68.9453C142.03 68.4245 141.704 67.7734 141.574 66.9922C141.444 66.1849 141.353 65.4688 141.301 64.8438C141.275 64.1927 141.262 63.6589 141.262 63.2422C141.262 62.7995 141.288 62.3438 141.34 61.875C141.262 61.5885 140.897 61.4453 140.246 61.4453C139.621 61.4453 139.009 61.7708 138.41 62.4219C137.811 63.0729 137.316 63.8542 136.926 64.7656C136.561 65.651 136.197 66.5365 135.832 67.4219C135.493 68.3073 135.168 68.9714 134.855 69.4141C134.543 69.8568 134.283 70.0781 134.074 70.0781C133.866 70.0781 133.71 70.0521 133.605 70C133.579 69.8438 133.566 69.6615 133.566 69.4531C133.566 68.151 134.022 65.3516 134.934 61.0547C135.845 56.7578 136.743 53.0729 137.629 50C137.681 49.8177 137.824 49.4271 138.059 48.8281C138.319 48.2031 138.592 47.7604 138.879 47.5C139.165 47.2135 139.465 47.0703 139.777 47.0703C140.09 47.0703 140.337 47.1354 140.52 47.2656V47.1875C140.78 47.3698 140.988 47.8125 141.145 48.5156C141.301 49.2188 141.379 49.7786 141.379 50.1953C141.379 52.6432 140.741 54.8828 139.465 56.9141C138.944 57.7474 138.423 58.5286 137.902 59.2578C137.382 59.987 136.965 60.6771 136.652 61.3281C136.366 61.9792 136.223 62.4609 136.223 62.7734C136.223 63.0859 136.223 63.2812 136.223 63.3594C137.655 61.3542 139.178 60.3516 140.793 60.3516C141.366 60.3516 141.783 60.4167 142.043 60.5469C142.251 60.6771 142.382 60.8594 142.434 61.0938C142.486 61.3021 142.512 61.862 142.512 62.7734C142.538 63.6589 142.577 64.4271 142.629 65.0781C142.707 65.7031 142.824 66.3802 142.98 67.1094C143.137 67.8125 143.345 68.2682 143.605 68.4766C143.892 68.6849 144.152 68.7891 144.387 68.7891C144.621 68.7891 144.868 68.724 145.129 68.5938C147.421 67.474 148.931 66.9141 149.66 66.9141C149.999 66.9141 150.168 67.0182 150.168 67.2266C150.168 67.4349 149.868 67.7604 149.27 68.2031ZM138.723 50.4688C137.759 54.1927 137.264 56.3151 137.238 56.8359C137.238 57.3307 137.238 57.6042 137.238 57.6562L137.277 58.2031C138.501 57.7083 139.374 55.5469 139.895 51.7188C140.051 50.599 140.129 49.6875 140.129 48.9844C140.129 48.2812 140.012 47.9297 139.777 47.9297C139.543 47.9297 139.191 48.776 138.723 50.4688ZM149.387 65.8984C149.361 65.6641 149.348 65.4427 149.348 65.2344C149.348 63.5677 149.895 61.849 150.988 60.0781C152.108 58.3073 153.54 57.4219 155.285 57.4219C155.624 57.4219 155.897 57.526 156.105 57.7344C156.314 57.9167 156.418 58.2422 156.418 58.7109C156.418 59.1536 156.288 59.6875 156.027 60.3125C155.793 60.9115 155.415 61.5234 154.895 62.1484C154.4 62.7734 153.97 63.2812 153.605 63.6719C153.241 64.0625 152.72 64.5703 152.043 65.1953C151.392 65.8203 151.001 66.1979 150.871 66.3281C150.845 66.5365 150.832 66.6536 150.832 66.6797C150.832 67.3828 151.171 67.9297 151.848 68.3203C152.525 68.7109 153.228 68.9062 153.957 68.9062C155.702 68.9062 157.082 68.5938 158.098 67.9688C159.139 67.3438 160.337 66.2891 161.691 64.8047C161.9 64.5443 162.017 64.3359 162.043 64.1797C162.095 64.0234 162.238 63.8542 162.473 63.6719C162.733 63.776 162.863 64.0234 162.863 64.4141C162.603 65.2214 162.082 66.0938 161.301 67.0312C160.52 67.9427 159.595 68.724 158.527 69.375C157.043 70.2344 155.78 70.6641 154.738 70.6641C153.723 70.6641 152.733 70.3125 151.77 69.6094C150.806 68.9062 150.012 67.6693 149.387 65.8984ZM155.363 58.8672C154.243 58.8672 153.202 59.4661 152.238 60.6641C151.275 61.862 150.793 63.0078 150.793 64.1016C150.793 64.4661 150.819 64.7266 150.871 64.8828C151.835 64.362 152.824 63.4766 153.84 62.2266C154.855 60.9505 155.363 59.8307 155.363 58.8672ZM171.027 65.9375C171.027 65.4688 171.027 64.6615 171.027 63.5156C171.053 62.3438 171.066 61.3411 171.066 60.5078C170.337 60.6641 169.27 61.6016 167.863 63.3203C166.483 65.0391 165.728 65.9375 165.598 66.0156C164.582 67.3698 163.788 68.3333 163.215 68.9062C162.98 69.2188 162.603 69.375 162.082 69.375V68.5156L163.762 63.0859C163.762 61.1849 164.087 59.7786 164.738 58.8672C164.921 58.6068 165.09 58.4766 165.246 58.4766C165.507 58.4766 165.637 58.9193 165.637 59.8047C165.637 60.6641 165.507 61.6276 165.246 62.6953C164.986 63.737 164.855 64.6094 164.855 65.3125C165.064 65.1042 165.689 64.375 166.73 63.125C167.772 61.875 168.397 61.1458 168.605 60.9375C168.788 60.8333 169.1 60.5729 169.543 60.1562C170.48 59.3229 171.301 58.9062 172.004 58.9062C172.395 58.9062 172.642 59.0365 172.746 59.2969C172.772 59.5833 172.785 60.0521 172.785 60.7031C172.785 61.3281 172.681 62.3307 172.473 63.7109C172.264 65.0651 172.147 66.1458 172.121 66.9531C172.121 68.1771 172.629 68.7891 173.645 68.7891C174.374 68.7891 175.077 68.5938 175.754 68.2031C176.431 67.7865 176.978 67.3307 177.395 66.8359C177.811 66.3151 178.293 65.7292 178.84 65.0781C179.387 64.401 179.868 63.9062 180.285 63.5938V63.9844C180.285 65.2344 179.478 66.5365 177.863 67.8906C176.249 69.2188 174.777 69.8828 173.449 69.8828H172.16C171.77 69.6224 171.509 69.375 171.379 69.1406C171.275 68.9062 171.197 68.737 171.145 68.6328C171.092 68.5286 171.053 68.3724 171.027 68.1641C171.027 67.9297 171.027 67.7604 171.027 67.6562V65.9375ZM179.074 70.2344L181.301 58.1641L183.918 47.1484C184.569 46.6276 185.103 46.3672 185.52 46.3672C186.145 46.3672 186.457 47.0052 186.457 48.2812C186.457 50.8594 185.467 54.6745 183.488 59.7266C182.759 61.5755 182.043 63.1771 181.34 64.5312C181.548 64.3229 181.965 63.8672 182.59 63.1641C183.241 62.4609 183.71 61.9661 183.996 61.6797C184.309 61.3932 184.764 60.9896 185.363 60.4688C185.988 59.9219 186.535 59.5312 187.004 59.2969C188.176 58.6458 189.361 58.2943 190.559 58.2422C191.444 58.5286 191.887 59.0104 191.887 59.6875C191.887 60.3385 191.249 61.2891 189.973 62.5391C188.723 63.763 187.329 64.7917 185.793 65.625C186.47 66.5885 187.395 67.3958 188.566 68.0469C189.738 68.6719 190.884 68.9844 192.004 68.9844C193.124 68.9844 193.866 68.737 194.23 68.2422C194.283 68.2422 194.348 68.2943 194.426 68.3984C194.53 68.4766 194.582 68.5417 194.582 68.5938C194.582 69.1146 194.309 69.5573 193.762 69.9219C193.215 70.2865 192.811 70.4688 192.551 70.4688C192.316 70.4688 192.16 70.4557 192.082 70.4297C191.066 70.3516 189.973 69.9609 188.801 69.2578C187.655 68.5547 186.561 67.8906 185.52 67.2656C184.504 66.6146 183.658 66.2891 182.98 66.2891C182.329 66.2891 181.9 66.3151 181.691 66.3672C181.509 66.6536 181.314 67.1615 181.105 67.8906C180.923 68.6198 180.689 69.1927 180.402 69.6094C180.116 70.026 179.673 70.2344 179.074 70.2344ZM183.176 64.1797C183.618 64.4141 184.191 64.5312 184.895 64.5312C185.598 64.5312 186.483 64.1667 187.551 63.4375C189.165 62.2917 190.09 60.9766 190.324 59.4922C188.449 59.4922 186.066 61.0547 183.176 64.1797ZM184.66 48.6719L181.691 60.8203C181.796 60.5859 182.004 60.1823 182.316 59.6094C182.629 59.0104 182.837 58.6068 182.941 58.3984C183.046 58.1641 183.215 57.7995 183.449 57.3047C183.684 56.7839 183.853 56.3411 183.957 55.9766C184.087 55.612 184.243 55.1432 184.426 54.5703C184.738 53.5547 185.064 52.2005 185.402 50.5078C185.402 49.2318 185.233 48.5938 184.895 48.5938C184.816 48.5938 184.738 48.6198 184.66 48.6719ZM204.582 58.9453L204.66 60.4297C204.66 60.9766 204.621 61.4062 204.543 61.7188C204.491 62.0052 204.452 62.2266 204.426 62.3828C204.4 62.5391 204.335 62.7474 204.23 63.0078C204.126 63.2422 204.061 63.4115 204.035 63.5156C204.009 63.6198 203.918 63.8151 203.762 64.1016C203.605 64.388 203.501 64.5703 203.449 64.6484C203.423 64.7266 203.306 64.9479 203.098 65.3125C202.915 65.651 202.798 65.8724 202.746 65.9766H203.527C205.038 65.9766 207.251 65.2474 210.168 63.7891L210.48 64.1406C207.98 66.1458 205.038 67.2396 201.652 67.4219L198.215 69.5312C197.902 69.7917 197.212 69.9219 196.145 69.9219C195.103 69.9219 194.426 69.6354 194.113 69.0625C193.827 68.4635 193.684 67.5391 193.684 66.2891C193.684 65.0391 194.204 63.6198 195.246 62.0312C196.314 60.4427 197.538 59.6484 198.918 59.6484C199.543 59.6484 199.947 59.9089 200.129 60.4297C198.671 60.8724 197.421 61.6406 196.379 62.7344C195.337 63.8281 194.816 65.0911 194.816 66.5234C194.816 67.0182 194.842 67.4089 194.895 67.6953C194.947 67.9818 195.09 68.2422 195.324 68.4766C195.559 68.7109 196.014 68.8281 196.691 68.8281C198.098 68.8281 199.243 68.2422 200.129 67.0703C199.868 66.6276 199.738 65.9115 199.738 64.9219C199.738 63.9062 199.816 62.9557 199.973 62.0703C200.155 61.1589 200.507 60.2865 201.027 59.4531C201.548 58.6198 202.199 58.2031 202.98 58.2031C203.762 58.2031 204.296 58.4505 204.582 58.9453ZM203.566 60.7812L203.605 60.2734C203.605 59.7526 203.449 59.4401 203.137 59.3359C202.46 59.7266 201.913 60.4297 201.496 61.4453C201.079 62.4609 200.871 63.3984 200.871 64.2578C200.871 65.1172 201.001 65.5729 201.262 65.625C201.991 65.2083 202.551 64.5312 202.941 63.5938C203.358 62.6562 203.566 61.7448 203.566 60.8594V60.7812ZM81.5352 116.195L84.3867 94.3984C84.4648 93.3568 84.5299 92.7448 84.582 92.5625L84.7383 91.4297H85.5195C85.5195 92.0807 85.4414 92.9401 85.2852 94.0078C84.582 99.2682 83.9049 104.932 83.2539 111C83.2799 110.974 83.3711 110.896 83.5273 110.766C83.6836 110.609 83.7747 110.518 83.8008 110.492C83.8529 110.44 83.944 110.362 84.0742 110.258C84.2044 110.154 84.2956 110.089 84.3477 110.062C84.3997 110.01 84.4779 109.945 84.582 109.867C84.7122 109.789 84.8164 109.737 84.8945 109.711C85.2852 109.581 85.5977 109.516 85.832 109.516C86.6133 109.516 87.3294 109.828 87.9805 110.453C88.6576 111.052 89.1914 111.716 89.582 112.445C89.9987 113.148 90.5586 113.812 91.2617 114.438C91.9909 115.036 92.7982 115.336 93.6836 115.336C95.0898 115.336 96.6133 114.581 98.2539 113.07C99.9206 111.534 101.288 109.763 102.355 107.758C103.423 105.753 103.957 104.06 103.957 102.68C103.957 102.654 103.944 102.615 103.918 102.562C103.918 102.51 103.918 102.484 103.918 102.484C102.798 103.552 101.691 104.32 100.598 104.789C99.5299 105.232 98.2669 105.453 96.8086 105.453C95.3763 105.453 94.1523 105.193 93.1367 104.672C92.1211 104.125 91.3268 103.37 90.7539 102.406C89.6862 100.583 89.1523 98.3307 89.1523 95.6484C89.1523 93.2786 89.7122 90.8958 90.832 88.5C91.4049 87.3021 92.1862 86.3255 93.1758 85.5703C94.1914 84.7891 95.3763 84.3984 96.7305 84.3984C98.0846 84.3984 99.3477 84.8411 100.52 85.7266C101.717 86.5859 102.655 87.6927 103.332 89.0469C104.712 91.8594 105.402 94.6849 105.402 97.5234C105.402 97.6536 105.402 97.7708 105.402 97.875C105.402 100.036 104.96 102.432 104.074 105.062C103.215 107.693 102.017 110.036 100.48 112.094C98.944 114.125 97.1602 115.44 95.1289 116.039C94.6602 116.169 94.1784 116.234 93.6836 116.234C92.0951 116.234 90.4544 115.479 88.7617 113.969C88.5794 113.734 88.3581 113.396 88.0977 112.953C87.4206 111.859 86.7695 111.13 86.1445 110.766C85.9622 110.635 85.8581 110.583 85.832 110.609C85.207 110.766 84.6862 111.156 84.2695 111.781C83.8529 112.406 83.5534 113.031 83.3711 113.656C82.9023 115.349 82.2904 116.195 81.5352 116.195ZM90.207 96.1172C90.207 98.487 90.7539 100.453 91.8477 102.016C92.9674 103.578 94.7122 104.359 97.082 104.359C97.3945 104.385 97.707 104.398 98.0195 104.398C100.676 104.398 102.512 103.201 103.527 100.805C104.022 99.6068 104.27 98.3307 104.27 96.9766C104.27 95.6224 104.048 94.1901 103.605 92.6797C102.746 89.6849 101.314 87.5104 99.3086 86.1562C98.5534 85.6354 97.7591 85.2969 96.9258 85.1406C95.7539 85.1406 94.7122 85.5182 93.8008 86.2734C92.8893 87.0026 92.1862 87.9401 91.6914 89.0859C90.7018 91.3776 90.207 93.7214 90.207 96.1172ZM104.816 111.898C104.79 111.664 104.777 111.443 104.777 111.234C104.777 109.568 105.324 107.849 106.418 106.078C107.538 104.307 108.97 103.422 110.715 103.422C111.053 103.422 111.327 103.526 111.535 103.734C111.743 103.917 111.848 104.242 111.848 104.711C111.848 105.154 111.717 105.688 111.457 106.312C111.223 106.911 110.845 107.523 110.324 108.148C109.829 108.773 109.4 109.281 109.035 109.672C108.671 110.062 108.15 110.57 107.473 111.195C106.822 111.82 106.431 112.198 106.301 112.328C106.275 112.536 106.262 112.654 106.262 112.68C106.262 113.383 106.6 113.93 107.277 114.32C107.954 114.711 108.658 114.906 109.387 114.906C111.132 114.906 112.512 114.594 113.527 113.969C114.569 113.344 115.767 112.289 117.121 110.805C117.329 110.544 117.447 110.336 117.473 110.18C117.525 110.023 117.668 109.854 117.902 109.672C118.163 109.776 118.293 110.023 118.293 110.414C118.033 111.221 117.512 112.094 116.73 113.031C115.949 113.943 115.025 114.724 113.957 115.375C112.473 116.234 111.21 116.664 110.168 116.664C109.152 116.664 108.163 116.312 107.199 115.609C106.236 114.906 105.441 113.669 104.816 111.898ZM110.793 104.867C109.673 104.867 108.632 105.466 107.668 106.664C106.704 107.862 106.223 109.008 106.223 110.102C106.223 110.466 106.249 110.727 106.301 110.883C107.264 110.362 108.254 109.477 109.27 108.227C110.285 106.951 110.793 105.831 110.793 104.867ZM120.168 111.977H120.559C120.897 111.742 121.561 111.221 122.551 110.414C123.566 109.581 124.126 109.125 124.23 109.047C124.361 108.943 125.116 108.201 126.496 106.82C126.6 106.69 126.757 106.417 126.965 106C127.408 105.062 127.928 104.594 128.527 104.594C128.892 104.594 129.074 104.789 129.074 105.18C129.074 105.544 128.944 105.961 128.684 106.43C128.423 106.898 128.293 107.263 128.293 107.523V114.828C130.428 114.828 131.887 114.411 132.668 113.578C132.98 113.266 133.41 112.797 133.957 112.172C134.53 111.547 135.116 111 135.715 110.531V110.922C135.715 111.833 135.155 112.771 134.035 113.734C132.915 114.672 131.743 115.362 130.52 115.805C129.296 116.247 128.449 116.469 127.98 116.469C127.512 116.469 127.186 116.456 127.004 116.43C126.301 116.43 125.637 116.299 125.012 116.039C124.387 115.805 123.658 115.44 122.824 114.945C122.017 114.451 121.366 114.086 120.871 113.852C119.777 114.581 118.879 114.945 118.176 114.945C117.499 114.945 117.16 114.802 117.16 114.516C117.16 114.385 117.29 114.19 117.551 113.93C117.785 113.669 118.306 113.396 119.113 113.109L118.371 111.977C118.241 111.872 118.254 111.794 118.41 111.742C118.566 111.664 118.684 111.625 118.762 111.625L119.426 111.781C119.895 111.911 120.142 111.977 120.168 111.977ZM122.395 112.719C122.681 113.292 123.358 113.773 124.426 114.164C125.493 114.555 126.457 114.75 127.316 114.75C127.316 112.484 127.16 110.453 126.848 108.656C126.275 108.995 125.91 109.242 125.754 109.398C125.598 109.529 125.051 110.076 124.113 111.039C123.176 112.003 122.603 112.562 122.395 112.719ZM135.363 107.641L135.52 107.133C136.04 105.466 136.483 104.633 136.848 104.633C137.368 104.633 137.629 104.828 137.629 105.219C137.629 105.297 137.616 105.375 137.59 105.453C136.6 107.875 136.105 110.18 136.105 112.367C136.105 113.357 136.353 114.19 136.848 114.867C137.342 115.518 138.098 115.844 139.113 115.844C141.665 114.854 143.267 114.359 143.918 114.359C144.126 114.359 144.23 114.411 144.23 114.516C144.23 114.828 143.553 115.284 142.199 115.883C140.845 116.456 139.777 116.742 138.996 116.742C138.241 116.742 137.668 116.677 137.277 116.547C136.887 116.443 136.6 116.339 136.418 116.234C136.236 116.13 136.014 115.909 135.754 115.57C135.493 115.206 135.324 114.737 135.246 114.164C135.168 113.565 135.129 112.719 135.129 111.625C135.129 110.531 135.207 109.203 135.363 107.641ZM152.121 107.68L151.809 115.727C151.809 115.753 151.809 115.87 151.809 116.078C151.835 116.286 151.848 116.417 151.848 116.469C152.629 116.156 153.788 115.557 155.324 114.672C156.861 113.76 158.28 113.122 159.582 112.758C159.842 112.914 159.973 113.109 159.973 113.344C159.973 113.396 159.374 113.708 158.176 114.281C154.426 116.104 152.186 117.445 151.457 118.305C151.066 122.315 150.741 124.919 150.48 126.117C150.246 127.315 150.09 128.07 150.012 128.383C149.96 128.721 149.816 129.203 149.582 129.828C149.348 130.453 149.1 130.909 148.84 131.195C148.137 131.977 147.329 132.367 146.418 132.367C145.507 132.367 144.608 132.185 143.723 131.82C142.863 131.482 142.238 131.039 141.848 130.492C141.796 130.232 141.77 129.802 141.77 129.203C141.77 127.276 142.798 125.062 144.855 122.562C145.012 122.432 145.493 122.042 146.301 121.391C148.462 119.646 149.699 118.617 150.012 118.305C150.272 117.862 150.402 117.003 150.402 115.727C150.402 115.648 150.389 115.401 150.363 114.984C150.363 114.568 150.363 114.32 150.363 114.242C148.488 115.492 146.926 116.117 145.676 116.117C144.582 116.065 143.788 115.453 143.293 114.281C143.085 113.76 142.98 113.135 142.98 112.406C142.98 111.651 143.319 110.779 143.996 109.789C145.09 108.227 146.9 107.081 149.426 106.352C151.223 106.352 152.121 106.794 152.121 107.68ZM142.941 129.047C142.941 129.698 143.306 130.219 144.035 130.609C144.764 131.026 145.507 131.234 146.262 131.234C147.043 131.234 147.707 130.766 148.254 129.828C148.827 128.917 149.217 127.771 149.426 126.391C149.816 124.073 150.012 122.172 150.012 120.688V119.789C148.293 120.909 146.678 122.328 145.168 124.047C143.684 125.792 142.941 127.458 142.941 129.047ZM144.426 114.086C144.426 114.711 144.895 115.023 145.832 115.023C147.421 114.971 148.645 114.346 149.504 113.148C150.363 111.951 150.793 110.909 150.793 110.023C150.793 109.945 150.793 109.867 150.793 109.789V109.398C150.793 108.826 150.663 108.37 150.402 108.031C150.142 107.667 149.777 107.484 149.309 107.484C149.204 107.458 149.087 107.445 148.957 107.445C147.785 107.445 146.704 108.109 145.715 109.438C144.751 110.766 144.27 111.951 144.27 112.992C144.27 113.357 144.322 113.721 144.426 114.086ZM167.316 111.938C167.316 111.469 167.316 110.661 167.316 109.516C167.342 108.344 167.355 107.341 167.355 106.508C166.626 106.664 165.559 107.602 164.152 109.32C162.772 111.039 162.017 111.938 161.887 112.016C160.871 113.37 160.077 114.333 159.504 114.906C159.27 115.219 158.892 115.375 158.371 115.375V114.516L160.051 109.086C160.051 107.185 160.376 105.779 161.027 104.867C161.21 104.607 161.379 104.477 161.535 104.477C161.796 104.477 161.926 104.919 161.926 105.805C161.926 106.664 161.796 107.628 161.535 108.695C161.275 109.737 161.145 110.609 161.145 111.312C161.353 111.104 161.978 110.375 163.02 109.125C164.061 107.875 164.686 107.146 164.895 106.938C165.077 106.833 165.389 106.573 165.832 106.156C166.77 105.323 167.59 104.906 168.293 104.906C168.684 104.906 168.931 105.036 169.035 105.297C169.061 105.583 169.074 106.052 169.074 106.703C169.074 107.328 168.97 108.331 168.762 109.711C168.553 111.065 168.436 112.146 168.41 112.953C168.41 114.177 168.918 114.789 169.934 114.789C170.663 114.789 171.366 114.594 172.043 114.203C172.72 113.786 173.267 113.331 173.684 112.836C174.1 112.315 174.582 111.729 175.129 111.078C175.676 110.401 176.158 109.906 176.574 109.594V109.984C176.574 111.234 175.767 112.536 174.152 113.891C172.538 115.219 171.066 115.883 169.738 115.883H168.449C168.059 115.622 167.798 115.375 167.668 115.141C167.564 114.906 167.486 114.737 167.434 114.633C167.382 114.529 167.342 114.372 167.316 114.164C167.316 113.93 167.316 113.76 167.316 113.656V111.938Z" fill="#1D0E07"/>
</svg>
